<svg width="16" height="16" viewBox="0 0 16 16" fill="none" xmlns="http://www.w3.org/2000/svg">
  <path fill-rule="evenodd" clip-rule="evenodd"
    d="M14.0952 0H1.90476C0.852791 0 0 0.852791 0 1.90476V11.0476C0 12.0996 0.852791 12.9524 1.90476 12.9524H3.80952V15.2381C3.81081 15.5453 3.99643 15.8216 4.28029 15.939C4.56415 16.0564 4.89073 15.9918 5.10857 15.7752L7.93143 12.9524H14.0952C15.1472 12.9524 16 12.0996 16 11.0476V1.90476C16 0.852791 15.1472 0 14.0952 0ZM9.52381 8.95238H4.57143C4.15064 8.95238 3.80952 8.61127 3.80952 8.19048C3.80952 7.76969 4.15064 7.42857 4.57143 7.42857H9.52381C9.9446 7.42857 10.2857 7.76969 10.2857 8.19048C10.2857 8.61127 9.9446 8.95238 9.52381 8.95238ZM11.4286 5.52381H4.57143C4.15064 5.52381 3.80952 5.18269 3.80952 4.7619C3.80952 4.34112 4.15064 4 4.57143 4H11.4286C11.8494 4 12.1905 4.34112 12.1905 4.7619C12.1905 5.18269 11.8494 5.52381 11.4286 5.52381Z"
    fill="white" />
</svg>
  