<svg width="8" height="8" viewBox="0 0 8 8" fill="none" xmlns="http://www.w3.org/2000/svg">
  <g clip-path="url(#clip0_3439_246)">
    <path
      d="M7.66667 4L6.85333 3.07L6.96667 1.84L5.76333 1.56667L5.13333 0.5L4 0.986667L2.86667 0.5L2.23667 1.56333L1.03333 1.83333L1.14667 3.06667L0.333332 4L1.14667 4.93L1.03333 6.16333L2.23667 6.43667L2.86667 7.5L4 7.01L5.13333 7.49667L5.76333 6.43333L6.96667 6.16L6.85333 4.93L7.66667 4ZM3.12667 5.33667L2.33333 4.53667C2.30243 4.50583 2.27792 4.4692 2.26119 4.42887C2.24446 4.38855 2.23585 4.34532 2.23585 4.30167C2.23585 4.25801 2.24446 4.21478 2.26119 4.17446C2.27792 4.13413 2.30243 4.0975 2.33333 4.06667L2.35667 4.04333C2.48667 3.91333 2.7 3.91333 2.83 4.04333L3.36667 4.58333L5.08333 2.86333C5.21333 2.73333 5.42667 2.73333 5.55667 2.86333L5.58 2.88667C5.71 3.01667 5.71 3.22667 5.58 3.35667L3.60667 5.33667C3.47 5.46667 3.26 5.46667 3.12667 5.33667Z"
      fill="url(#paint0_linear_3439_246)" />
    <path
      d="M3.12667 5.33667L2.33334 4.53667C2.30244 4.50583 2.27792 4.4692 2.26119 4.42888C2.24447 4.38856 2.23586 4.34533 2.23586 4.30167C2.23586 4.25802 2.24447 4.21479 2.26119 4.17446C2.27792 4.13414 2.30244 4.09751 2.33334 4.06667L2.35667 4.04334C2.48667 3.91334 2.7 3.91334 2.83 4.04334L3.36667 4.58334L5.08334 2.86334C5.21334 2.73334 5.42667 2.73334 5.55667 2.86334L5.58 2.88667C5.71001 3.01667 5.71001 3.22667 5.58 3.35667L3.60667 5.33667C3.47 5.46667 3.26 5.46667 3.12667 5.33667Z"
      fill="#F5F8FA" />
  </g>
  <defs>
    <linearGradient id="paint0_linear_3439_246" x1="0.333332" y1="0.5" x2="7.68289" y2="0.517079"
      gradientUnits="userSpaceOnUse">
      <stop stop-color="#FE5A5A" />
      <stop offset="1" stop-color="#F163D2" />
    </linearGradient>
    <clipPath id="clip0_3439_246">
      <rect width="8" height="8" rx="4" fill="white" />
    </clipPath>
  </defs>
</svg>
  