<svg width="16" height="16" viewBox="0 0 16 16" fill="none" xmlns="http://www.w3.org/2000/svg">
  <path fill-rule="evenodd" clip-rule="evenodd"
    d="M8 0C3.58172 0 0 3.58172 0 8C0 12.4183 3.58172 16 8 16C12.4183 16 16 12.4183 16 8C16 5.87827 15.1571 3.84344 13.6569 2.34315C12.1566 0.842855 10.1217 0 8 0ZM11.9298 11.3933L11.8765 11.4467C11.0621 12.2558 9.79639 12.3942 8.82648 11.78C6.95716 10.6157 5.37819 9.04011 4.20982 7.17332C3.59565 6.20342 3.73398 4.93766 4.54315 4.12332L4.59648 4.06999C4.76432 3.9018 4.998 3.81655 5.2347 3.83713C5.47141 3.85771 5.68686 3.98203 5.82315 4.17665L6.91315 5.73665C7.13836 6.05481 7.10028 6.4892 6.82315 6.76332L6.75982 6.82999C6.55896 7.02501 6.51765 7.33215 6.65982 7.57332C7.09187 8.2988 7.69938 8.90402 8.42648 9.33332C8.66765 9.47549 8.97479 9.43417 9.16982 9.23332L9.23648 9.16999C9.5106 8.89286 9.94499 8.85478 10.2632 9.07999L11.8232 10.17C12.0166 10.3063 12.1401 10.5211 12.1607 10.7569C12.1813 10.9927 12.0968 11.2255 11.9298 11.3933Z"
    fill="white" />
</svg>
  