<svg width="18" height="19" viewBox="0 0 18 19" fill="none" xmlns="http://www.w3.org/2000/svg">
  <path
    d="M8.5 17C6.81886 17 5.17547 16.5015 3.77766 15.5675C2.37984 14.6335 1.29037 13.306 0.647028 11.7528C0.00368293 10.1996 -0.164645 8.49057 0.163329 6.84173C0.491303 5.1929 1.30085 3.67834 2.4896 2.4896C3.67834 1.30085 5.1929 0.491303 6.84173 0.163329C8.49057 -0.164645 10.1996 0.00368293 11.7528 0.647028C13.306 1.29037 14.6335 2.37984 15.5675 3.77766C16.5015 5.17547 17 6.81886 17 8.5C17 10.7543 16.1045 12.9164 14.5104 14.5104C12.9163 16.1045 10.7543 17 8.5 17ZM8.5 1.7C7.15509 1.7 5.84038 2.09882 4.72213 2.84601C3.60387 3.5932 2.7323 4.65522 2.21762 5.89776C1.70295 7.14029 1.56828 8.50755 1.83066 9.82662C2.09304 11.1457 2.74068 12.3573 3.69168 13.3083C4.64267 14.2593 5.85432 14.907 7.17339 15.1693C8.49246 15.4317 9.85971 15.2971 11.1022 14.7824C12.3448 14.2677 13.4068 13.3961 14.154 12.2779C14.9012 11.1596 15.3 9.84492 15.3 8.5C15.3 6.69653 14.5836 4.96692 13.3083 3.69168C12.0331 2.41643 10.3035 1.7 8.5 1.7Z"
    fill="#89888B" />
  <path
    d="M16.7213 18.3L16.7202 18.3C16.6433 18.3003 16.5671 18.2854 16.4961 18.2559C16.4252 18.2266 16.3609 18.1834 16.3069 18.1289L16.3071 18.1291L16.5198 17.9175L16.3065 18.1285L16.7213 18.3ZM16.7213 18.3C16.7987 18.2993 16.8752 18.2831 16.9463 18.2523C17.0162 18.222 17.0795 18.1782 17.1324 18.1233C17.2397 18.0146 17.3 17.868 17.3 17.7151C17.3 17.5611 17.2388 17.4135 17.1301 17.3045M16.7213 18.3L17.1301 17.3045M17.1298 17.3043L14.2145 14.3776L17.1298 17.3043ZM17.1298 17.3043C17.1299 17.3044 17.13 17.3045 17.1301 17.3045M17.1298 17.3043L17.1301 17.3045M13.3973 15.2042C13.3993 15.2061 13.4013 15.2079 13.4033 15.2098L13.6059 14.9885L13.3932 15.2001L13.3973 15.2042Z"
    fill="#89888B" stroke="#89888B" stroke-width="0.6" />
</svg>
  